<svg id="visual" viewBox="0 0 1728 845" width="1728" height="845" xmlns="http://www.w3.org/2000/svg" xmlns:xlink="http://www.w3.org/1999/xlink" version="1.1"><rect x="0" y="0" width="1728" height="845" fill="#f1f1e6"></rect><defs><linearGradient id="grad1_0" x1="51.1%" y1="100%" x2="100%" y2="0%"><stop offset="9.100591715976332%" stop-color="#04294f" stop-opacity="1"></stop><stop offset="90.89940828402366%" stop-color="#04294f" stop-opacity="1"></stop></linearGradient></defs><defs><linearGradient id="grad1_1" x1="51.1%" y1="100%" x2="100%" y2="0%"><stop offset="9.100591715976332%" stop-color="#04294f" stop-opacity="1"></stop><stop offset="90.89940828402366%" stop-color="#034664" stop-opacity="1"></stop></linearGradient></defs><defs><linearGradient id="grad1_2" x1="51.1%" y1="100%" x2="100%" y2="0%"><stop offset="9.100591715976332%" stop-color="#256375" stop-opacity="1"></stop><stop offset="90.89940828402366%" stop-color="#034664" stop-opacity="1"></stop></linearGradient></defs><defs><linearGradient id="grad1_3" x1="51.1%" y1="100%" x2="100%" y2="0%"><stop offset="9.100591715976332%" stop-color="#256375" stop-opacity="1"></stop><stop offset="90.89940828402366%" stop-color="#4b7f84" stop-opacity="1"></stop></linearGradient></defs><defs><linearGradient id="grad1_4" x1="51.1%" y1="100%" x2="100%" y2="0%"><stop offset="9.100591715976332%" stop-color="#759c94" stop-opacity="1"></stop><stop offset="90.89940828402366%" stop-color="#4b7f84" stop-opacity="1"></stop></linearGradient></defs><defs><linearGradient id="grad1_5" x1="51.1%" y1="100%" x2="100%" y2="0%"><stop offset="9.100591715976332%" stop-color="#759c94" stop-opacity="1"></stop><stop offset="90.89940828402366%" stop-color="#a0b7a9" stop-opacity="1"></stop></linearGradient></defs><defs><linearGradient id="grad1_6" x1="51.1%" y1="100%" x2="100%" y2="0%"><stop offset="9.100591715976332%" stop-color="#cad4c5" stop-opacity="1"></stop><stop offset="90.89940828402366%" stop-color="#a0b7a9" stop-opacity="1"></stop></linearGradient></defs><defs><linearGradient id="grad1_7" x1="51.1%" y1="100%" x2="100%" y2="0%"><stop offset="9.100591715976332%" stop-color="#cad4c5" stop-opacity="1"></stop><stop offset="90.89940828402366%" stop-color="#f1f1e6" stop-opacity="1"></stop></linearGradient></defs><defs><linearGradient id="grad2_0" x1="0%" y1="100%" x2="48.9%" y2="0%"><stop offset="9.100591715976332%" stop-color="#04294f" stop-opacity="1"></stop><stop offset="90.89940828402366%" stop-color="#04294f" stop-opacity="1"></stop></linearGradient></defs><defs><linearGradient id="grad2_1" x1="0%" y1="100%" x2="48.9%" y2="0%"><stop offset="9.100591715976332%" stop-color="#034664" stop-opacity="1"></stop><stop offset="90.89940828402366%" stop-color="#04294f" stop-opacity="1"></stop></linearGradient></defs><defs><linearGradient id="grad2_2" x1="0%" y1="100%" x2="48.9%" y2="0%"><stop offset="9.100591715976332%" stop-color="#034664" stop-opacity="1"></stop><stop offset="90.89940828402366%" stop-color="#256375" stop-opacity="1"></stop></linearGradient></defs><defs><linearGradient id="grad2_3" x1="0%" y1="100%" x2="48.9%" y2="0%"><stop offset="9.100591715976332%" stop-color="#4b7f84" stop-opacity="1"></stop><stop offset="90.89940828402366%" stop-color="#256375" stop-opacity="1"></stop></linearGradient></defs><defs><linearGradient id="grad2_4" x1="0%" y1="100%" x2="48.9%" y2="0%"><stop offset="9.100591715976332%" stop-color="#4b7f84" stop-opacity="1"></stop><stop offset="90.89940828402366%" stop-color="#759c94" stop-opacity="1"></stop></linearGradient></defs><defs><linearGradient id="grad2_5" x1="0%" y1="100%" x2="48.9%" y2="0%"><stop offset="9.100591715976332%" stop-color="#a0b7a9" stop-opacity="1"></stop><stop offset="90.89940828402366%" stop-color="#759c94" stop-opacity="1"></stop></linearGradient></defs><defs><linearGradient id="grad2_6" x1="0%" y1="100%" x2="48.9%" y2="0%"><stop offset="9.100591715976332%" stop-color="#a0b7a9" stop-opacity="1"></stop><stop offset="90.89940828402366%" stop-color="#cad4c5" stop-opacity="1"></stop></linearGradient></defs><defs><linearGradient id="grad2_7" x1="0%" y1="100%" x2="48.9%" y2="0%"><stop offset="9.100591715976332%" stop-color="#f1f1e6" stop-opacity="1"></stop><stop offset="90.89940828402366%" stop-color="#cad4c5" stop-opacity="1"></stop></linearGradient></defs><g transform="translate(1728, 845)"><path d="M-718.2 0C-661.4 -78.3 -604.6 -156.7 -567.3 -235C-529.9 -313.3 -512 -391.6 -468.8 -468.8C-425.6 -546 -357.2 -622.2 -274.9 -663.6C-192.5 -705 -96.3 -711.6 0 -718.2L0 0Z" fill="#dee2d5"></path><path d="M-628.5 0C-578.8 -68.5 -529 -137.1 -496.4 -205.6C-463.7 -274.1 -448 -342.6 -410.2 -410.2C-372.4 -477.8 -312.6 -544.4 -240.5 -580.6C-168.5 -616.8 -84.2 -622.7 0 -628.5L0 0Z" fill="#b5c5b6"></path><path d="M-538.7 0C-496.1 -58.7 -453.5 -117.5 -425.4 -176.2C-397.4 -235 -384 -293.7 -351.6 -351.6C-319.2 -409.5 -267.9 -466.6 -206.1 -497.7C-144.4 -528.7 -72.2 -533.7 0 -538.7L0 0Z" fill="#8aa99e"></path><path d="M-448.9 0C-413.4 -49 -377.9 -97.9 -354.5 -146.9C-331.2 -195.8 -320 -244.7 -293 -293C-266 -341.3 -223.3 -388.9 -171.8 -414.7C-120.3 -440.6 -60.2 -444.8 0 -448.9L0 0Z" fill="#608d8c"></path><path d="M-359.1 0C-330.7 -39.2 -302.3 -78.3 -283.6 -117.5C-264.9 -156.6 -256 -195.8 -234.4 -234.4C-212.8 -273 -178.6 -311.1 -137.4 -331.8C-96.3 -352.5 -48.1 -355.8 0 -359.1L0 0Z" fill="#38717d"></path><path d="M-269.3 0C-248 -29.4 -226.7 -58.7 -212.7 -88.1C-198.7 -117.5 -192 -146.8 -175.8 -175.8C-159.6 -204.8 -134 -233.3 -103.1 -248.8C-72.2 -264.4 -36.1 -266.9 0 -269.3L0 0Z" fill="#13546d"></path><path d="M-179.6 0C-165.4 -19.6 -151.2 -39.2 -141.8 -58.7C-132.5 -78.3 -128 -97.9 -117.2 -117.2C-106.4 -136.5 -89.3 -155.5 -68.7 -165.9C-48.1 -176.2 -24.1 -177.9 0 -179.6L0 0Z" fill="#00375a"></path><path d="M-89.8 0C-82.7 -9.8 -75.6 -19.6 -70.9 -29.4C-66.2 -39.2 -64 -48.9 -58.6 -58.6C-53.2 -68.3 -44.7 -77.8 -34.4 -82.9C-24.1 -88.1 -12 -89 0 -89.8L0 0Z" fill="#04294f"></path></g><g transform="translate(0, 0)"><path d="M718.3 0C711.4 98 704.5 196 663.6 274.9C622.6 353.7 547.6 413.4 480.1 480.1C412.7 546.9 352.8 620.6 274 661.5C195.2 702.4 97.6 710.3 0 718.3L0 0Z" fill="#dee2d5"></path><path d="M628.5 0C622.5 85.8 616.5 171.5 580.6 240.5C544.8 309.5 479.1 361.7 420.1 420.1C361.1 478.5 308.7 543.1 239.8 578.8C170.8 614.6 85.4 621.5 0 628.5L0 0Z" fill="#b5c5b6"></path><path d="M538.7 0C533.5 73.5 528.4 147 497.7 206.1C467 265.3 410.7 310 360.1 360.1C309.5 410.1 264.6 465.5 205.5 496.1C146.4 526.8 73.2 532.7 0 538.7L0 0Z" fill="#8aa99e"></path><path d="M448.9 0C444.6 61.3 440.3 122.5 414.7 171.8C389.1 221.1 342.2 258.4 300.1 300.1C257.9 341.8 220.5 387.9 171.3 413.4C122 439 61 443.9 0 448.9L0 0Z" fill="#608d8c"></path><path d="M359.1 0C355.7 49 352.3 98 331.8 137.4C311.3 176.9 273.8 206.7 240.1 240.1C206.3 273.4 176.4 310.3 137 330.7C97.6 351.2 48.8 355.2 0 359.1L0 0Z" fill="#38717d"></path><path d="M269.3 0C266.8 36.8 264.2 73.5 248.8 103.1C233.5 132.6 205.3 155 180 180C154.7 205.1 132.3 232.7 102.8 248.1C73.2 263.4 36.6 266.4 0 269.3L0 0Z" fill="#13546d"></path><path d="M179.6 0C177.8 24.5 176.1 49 165.9 68.7C155.7 88.4 136.9 103.3 120 120C103.2 136.7 88.2 155.2 68.5 165.4C48.8 175.6 24.4 177.6 0 179.6L0 0Z" fill="#00375a"></path><path d="M89.8 0C88.9 12.3 88.1 24.5 82.9 34.4C77.8 44.2 68.4 51.7 60 60C51.6 68.4 44.1 77.6 34.3 82.7C24.4 87.8 12.2 88.8 0 89.8L0 0Z" fill="#04294f"></path></g></svg>