<svg width="1085" height="1085" viewBox="0 0 1085 1085" fill="none" xmlns="http://www.w3.org/2000/svg">
<g clip-path="url(#clip0_14_159)">
<rect width="1085" height="1085" rx="100" fill="#3892F9"/>
<path d="M933.043 1103.46H64.3869C64.3869 1103.46 115.565 999.576 138.235 881.14C154.035 799.095 165.713 751.125 210.022 724.659C241.278 706.133 329.209 679.336 391.722 670.734C417.139 667.426 467.63 663.787 511.252 667.095C544.226 671.065 612.235 689.591 638.339 696.539C677.495 707.125 762.335 738.554 799.774 771.637C814.543 784.87 849.578 851.035 872.248 946.975C898.352 1056.15 933.043 1103.46 933.043 1103.46Z" fill="#F1F1E6"/>
<path d="M940.942 1107.43C682.303 1109.41 319.59 1114.04 64.7293 1113.71C57.1727 1114.04 51.6771 1105.77 55.1119 1099.16C61.2945 1086.58 67.1336 1073.68 72.6292 1060.45C97.3597 1001.56 118.312 941.02 131.021 878.825C141.325 830.193 149.568 775.938 187.694 739.216C198.342 728.96 211.394 721.02 224.79 715.065C251.925 703.156 279.747 693.231 307.912 684.629C364.586 666.765 424.694 659.156 484.46 660.148C514.342 660.148 544.568 664.78 573.764 671.396C586.473 673.712 604.334 679.005 616.699 682.314L627.347 685.291C629.407 686.283 630.094 690.253 631.125 692.238C631.812 693.562 632.499 693.892 633.529 694.223C635.247 694.554 637.994 692.238 639.712 692.9C674.403 702.825 707.72 717.381 739.664 733.592C762.334 745.832 785.69 757.742 804.238 775.607C820.381 795.456 833.434 817.622 845.455 840.118C874.651 898.013 882.894 963.516 905.22 1023.4C913.464 1046.22 923.081 1069.05 934.76 1090.55L937.164 1094.85L938.538 1097.17L939.225 1098.16L939.568 1098.82C941.629 1100.15 942.316 1105.11 940.942 1107.43ZM925.142 1099.49C923.425 1101.47 923.768 1105.77 925.142 1107.43L924.799 1106.76L924.112 1105.44L922.738 1103.13C908.655 1079.31 898.694 1053.83 889.764 1028.03C866.407 960.539 858.851 888.419 825.877 824.238C817.634 808.028 809.39 791.486 797.025 777.922C789.812 771.637 781.912 766.344 773.668 761.381C736.573 739.547 695.012 724.659 654.138 710.434C650.703 709.11 642.116 706.464 638.681 705.471C635.934 704.81 634.903 704.479 634.216 701.171C633.529 698.524 632.842 695.216 629.751 696.539C628.034 697.201 624.942 701.171 622.881 700.84C616.012 699.186 597.807 694.554 590.938 692.9C564.49 686.283 538.386 678.013 511.594 673.05C429.16 666.103 346.725 679.998 268.068 703.486C240.934 712.419 211.051 720.689 191.473 742.193C157.468 782.885 151.629 851.366 140.981 901.983C126.212 972.449 103.886 1040.93 74.0032 1107.43L64.3858 1092.87C313.064 1093.86 673.029 1096.84 925.142 1099.49Z" fill="#04294F"/>
<path d="M381.072 704.148C370.424 705.141 359.089 707.456 349.472 712.75C348.441 713.411 347.067 711.757 348.098 711.096C357.028 703.487 368.363 699.186 379.354 695.877C381.759 695.216 384.163 696.539 384.507 698.855C385.537 701.502 383.82 704.148 381.072 704.148Z" fill="#04294F"/>
<path d="M408.551 746.495C396.186 749.141 384.164 754.765 374.203 762.705C366.303 764.029 386.225 748.48 387.599 747.818C393.438 743.848 399.277 740.871 406.147 738.224C408.208 737.563 410.955 738.555 411.642 740.54C413.016 743.517 411.299 746.164 408.551 746.495Z" fill="#04294F"/>
<path d="M452.857 788.84C442.896 796.449 434.309 806.704 428.814 817.953C428.47 818.614 427.44 818.945 426.753 818.614C426.066 818.283 425.723 817.622 426.066 816.96C428.127 810.674 430.875 804.389 434.653 798.765C438.431 792.81 442.553 787.516 447.362 782.554C449.079 780.9 451.827 780.9 453.544 782.554C455.262 784.208 455.262 787.517 452.857 788.84Z" fill="#04294F"/>
<path d="M527.05 821.592C521.211 833.501 516.746 846.404 516.059 859.637C516.059 861.953 511.937 861.953 511.937 859.637C511.25 849.05 512.967 838.464 516.059 828.539C517.776 824.569 518.12 813.983 524.989 815.968C527.05 816.629 528.08 819.276 527.05 821.592Z" fill="#04294F"/>
<path d="M605.705 822.916C607.766 827.547 623.566 864.6 616.009 864.931C614.979 864.931 613.948 864.269 613.948 863.276C613.605 859.968 612.575 856.991 611.201 853.683C607.766 844.419 602.957 835.156 597.805 826.555C595.401 821.592 603.301 817.622 605.705 822.916Z" fill="#04294F"/>
<path d="M638.337 749.802C651.046 752.118 661.693 759.396 669.593 768.659C669.937 768.99 669.937 769.983 669.593 770.314C669.25 770.644 668.563 770.644 667.876 770.314C659.633 763.366 648.641 758.404 637.65 758.073C631.124 757.742 632.154 748.81 638.337 749.802Z" fill="#04294F"/>
<path d="M625.971 711.096C636.619 713.743 646.58 718.044 654.48 725.322C655.166 725.983 655.166 726.976 654.48 727.638C653.793 728.299 653.106 728.299 652.419 727.968C644.175 722.675 634.214 720.029 624.597 719.367C618.414 718.705 619.788 709.773 625.971 711.096Z" fill="#04294F"/>
<path d="M638.337 796.449C647.954 804.058 657.572 811.998 663.754 822.584C664.098 822.915 663.754 823.577 663.411 823.907C663.067 824.238 662.38 823.907 662.037 823.577C654.48 814.644 644.176 808.689 633.872 803.065C628.376 800.419 633.185 792.81 638.337 796.449Z" fill="#04294F"/>
<path d="M646.489 775.814C639.51 810.138 594.309 830.799 518.2 799.807C439.1 767.816 404.868 691.502 396.227 668.842C443.088 580.864 410.518 519.88 410.518 519.88C518.533 510.549 612.921 637.183 612.921 637.183L627.545 699.833C628.874 705.165 631.533 709.831 635.521 713.163C642.501 725.493 650.81 753.819 646.489 775.814Z" fill="#F1F1E6"/>
<path d="M394.566 669.841C400.881 660.177 404.869 648.847 407.528 637.85C412.513 614.856 414.175 591.528 414.507 568.201V559.537C413.51 550.872 410.519 541.875 407.196 533.877C402.875 523.213 418.496 516.548 423.481 527.212C424.146 528.545 424.146 530.878 424.146 532.211C425.143 577.532 427.137 635.85 398.554 673.507C396.56 675.507 392.572 672.507 394.566 669.841Z" fill="#04294F"/>
<path d="M616.578 636.517C621.563 639.516 623.225 643.515 623.889 647.514C625.884 655.512 625.219 664.176 627.213 672.508C628.875 680.506 633.86 688.17 635.189 696.501C636.851 705.166 641.837 723.494 643.831 732.492C644.495 734.491 643.166 736.824 640.839 737.157C639.51 737.491 638.513 737.157 637.516 736.491C633.195 732.825 631.201 729.159 628.542 724.494C624.222 716.496 621.231 709.165 618.572 700.167C616.245 692.169 617.242 683.505 615.248 675.174C613.586 667.176 608.933 659.511 607.272 651.18C606.275 647.181 605.942 642.849 608.933 637.85C610.928 635.85 614.251 635.184 616.578 636.517Z" fill="#04294F"/>
<path d="M640.508 724.494C577.029 721.161 525.181 701.166 474.664 610.857C517.205 648.514 567.39 662.843 620.235 669.508L627.214 700.167C628.543 705.499 636.52 721.161 640.508 724.494Z" fill="#04294F"/>
<path d="M637.851 712.164C649.151 733.491 655.798 760.151 648.819 783.812C643.501 800.474 628.213 812.804 611.595 817.47C573.042 827.8 528.507 811.471 494.274 793.143C452.065 769.482 420.824 729.826 400.883 686.504C399.553 683.171 404.206 680.505 406.2 683.838C413.18 697.834 421.156 711.497 430.13 723.827C439.103 736.491 449.406 748.154 461.039 758.485C494.939 789.144 540.804 808.139 586.669 808.139C633.863 806.806 651.81 781.812 640.842 735.824C639.18 728.493 636.522 720.828 632.866 714.496C630.872 711.83 635.857 708.831 637.851 712.164Z" fill="#04294F"/>
<path d="M766.47 311.934C772.453 339.927 767.8 358.589 765.141 435.902C762.482 511.882 740.547 619.188 713.626 646.181C693.02 666.509 626.882 682.505 568.055 667.508C538.143 659.844 512.884 642.515 492.278 630.185C466.355 614.522 443.755 566.201 425.143 535.21C410.519 510.883 411.849 540.208 392.905 519.214C366.649 490.555 335.075 432.903 350.696 330.93C375.955 165.639 506.57 146.311 603.285 164.64C700.664 182.968 750.517 238.287 766.47 311.934Z" fill="#F1F1E6"/>
<path d="M409.524 548.54C401.879 535.876 391.909 524.546 382.935 512.549C369.641 494.22 359.67 473.226 353.023 451.565C324.109 358.922 341.723 237.621 429.132 182.968C508.565 132.315 662.777 150.643 727.254 219.958C751.516 244.952 767.136 277.61 773.783 311.601C774.116 313.601 775.113 317.266 775.445 319.266C775.777 320.932 776.775 322.932 776.442 324.931C775.777 332.263 774.448 339.594 773.783 346.925C768.798 391.247 770.127 436.569 764.477 480.891C759.492 527.545 752.845 574.199 738.886 619.188C734.566 632.851 726.257 645.181 715.289 654.179C690.695 674.84 658.457 681.838 627.548 683.171C565.73 686.17 502.915 664.176 467.021 611.856C465.691 609.857 468.35 607.524 470.012 609.524C499.924 641.849 540.471 662.51 583.677 667.175C631.536 672.84 703.657 668.508 724.595 617.188C748.857 544.541 761.486 467.561 762.816 391.247C762.816 372.585 761.819 353.924 761.819 334.929C761.819 332.596 762.151 327.264 762.151 324.931C762.151 324.931 762.151 324.598 762.151 324.931C762.151 325.264 762.151 325.264 762.151 324.931C759.492 318.266 758.495 310.935 756.501 304.27C749.189 276.61 735.895 250.284 716.951 229.289C654.136 158.641 514.215 140.979 435.779 193.965C373.629 235.288 357.012 314.6 352.691 384.582C349.035 436.902 364.323 488.222 403.874 524.213L419.494 540.542C426.141 547.873 414.841 556.537 409.524 548.54Z" fill="#04294F"/>
<path d="M448.742 442.567C448.742 442.567 438.439 392.58 389.916 398.578C348.039 403.91 333.416 504.551 428.469 532.543" fill="#F1F1E6"/>
<path d="M424.146 488.889C416.502 484.557 411.184 477.225 410.852 468.228C411.184 461.563 412.181 453.898 410.519 447.233C409.522 440.901 402.875 439.235 397.89 439.568C392.572 440.568 389.249 447.233 388.252 452.565C388.252 452.898 387.919 453.898 387.919 454.231C387.587 455.897 384.928 455.897 384.263 454.231C379.943 441.235 389.581 426.905 403.54 428.571C423.149 429.904 425.808 450.565 422.152 466.228C420.158 472.893 422.816 478.891 426.472 484.557L427.137 485.556C428.799 487.556 426.14 490.222 424.146 488.889Z" fill="#04294F"/>
<path d="M690.032 407.243C695.017 430.903 704.323 452.898 715.955 473.559C726.258 498.886 699.67 522.879 676.073 521.88C673.414 521.88 673.082 518.214 675.408 517.547C690.364 512.882 703.991 502.885 706.317 487.555C707.314 482.89 705.985 478.891 703.658 474.892C692.691 454.231 686.044 430.57 687.705 407.243C687.705 405.577 690.032 405.577 690.032 407.243Z" fill="#04294F"/>
<path d="M447.08 442.9C439.436 423.239 422.818 404.577 400.55 404.91C398.556 404.577 395.233 405.244 393.238 405.244C387.588 405.577 382.935 407.576 378.615 411.575C357.344 432.903 361 470.56 378.282 494.22C384.265 502.552 391.909 509.883 400.55 515.881C409.191 521.88 418.83 526.545 429.133 530.544C431.459 531.211 430.462 534.876 428.136 534.543C405.868 529.878 384.597 518.881 369.974 500.552C347.374 473.226 342.721 427.571 369.641 400.911C375.624 395.579 383.933 391.581 392.241 391.581C394.9 391.581 398.888 390.914 401.547 391.581C415.506 392.247 428.8 399.245 437.441 410.242C445.086 419.573 449.406 430.904 450.736 442.234C450.736 444.233 447.744 444.9 447.08 442.9Z" fill="#04294F"/>
<path d="M582.172 416.458C582.172 416.837 582.172 417.216 582.172 417.216L581.794 427.823C581.416 436.916 573.859 443.735 564.792 443.356C555.724 442.977 548.923 435.021 549.679 426.308L550.056 415.701C550.056 413.806 550.812 411.533 551.568 410.018L581.794 411.533C581.794 413.049 582.172 414.564 582.172 416.458Z" fill="#04294F"/>
<path d="M740.102 424.793L739.724 434.642C739.346 442.977 732.167 449.417 723.855 449.038C715.543 448.659 709.12 441.462 709.498 433.127L709.875 423.277C709.875 421.383 710.253 419.489 711.009 417.973L739.346 419.11C739.724 421.004 740.102 422.898 740.102 424.793Z" fill="#04294F"/>
<path d="M619.953 364.557C628.265 365.693 634.688 356.98 631.665 348.646C630.154 344.099 627.509 339.932 623.353 337.28C610.507 329.325 562.523 328.567 537.209 346.751C514.539 363.42 582.17 359.253 619.953 364.557Z" fill="#04294F"/>
<path d="M724.611 368.724C717.81 368.724 713.654 360.011 717.054 352.813C718.943 349.024 721.588 345.615 725.366 343.721C737.079 338.038 768.438 341.448 782.418 360.769C794.886 377.816 755.97 368.345 724.611 368.724Z" fill="#04294F"/>
<path d="M606.35 416.458L544.008 415.321C536.452 414.943 536.83 403.577 544.386 403.956L606.727 408.502C612.017 408.881 611.639 416.458 606.35 416.458Z" fill="#04294F"/>
<path d="M755.972 422.898L709.877 423.656C702.32 423.656 701.943 412.669 709.499 412.291C709.877 412.291 709.877 412.291 710.255 412.291L756.35 417.215C759.75 417.594 759.372 422.519 755.972 422.898Z" fill="#04294F"/>
<path d="M700.173 577.269C670.843 602.861 615.39 582.303 600.724 551.256C598.891 547.48 603.474 544.124 607.14 545.802C614.931 549.578 621.806 553.354 629.138 556.291C650.22 565.102 672.218 572.234 695.591 570.136C700.173 569.297 703.381 574.332 700.173 577.269Z" fill="#04294F"/>
<path d="M782.918 215.704C788.832 202.066 788.832 187.128 778.975 174.14C750.392 136.797 662.014 165.047 612.732 149.461C538.81 125.756 447.146 122.834 393.264 210.508C379.794 232.589 373.223 238.759 354.168 256.294C334.455 274.478 319.013 307.924 317.699 353.71C314.742 445.606 387.679 525.487 387.679 525.487C391.293 530.358 394.579 534.579 397.535 538.151C423.819 569.325 432.033 629.398 424.148 534.579C342.34 503.406 357.124 412.809 396.878 407.938C438.932 402.743 452.074 439.761 454.374 448.853C482.628 430.994 472.444 393.001 469.158 357.607C491.171 347.865 509.898 324.485 519.754 303.378C530.596 318.316 543.738 330.005 559.508 331.304C576.264 332.928 586.12 318.965 589.405 299.157C611.089 327.408 649.529 362.478 709.981 369.297C738.893 372.544 762.877 360.529 778.975 340.721C783.246 341.371 787.189 341.695 791.132 341.371C833.514 337.149 880.824 252.397 782.918 215.704Z" fill="#04294F"/>
</g>
<defs>
<clipPath id="clip0_14_159">
<rect width="1085" height="1085" rx="100" fill="white"/>
</clipPath>
</defs>
</svg>
